<svg xmlns="http://www.w3.org/2000/svg" version="1.1" xmlns:xlink="http://www.w3.org/1999/xlink" xmlns:svgjs="http://svgjs.dev/svgjs" width="1500" height="530" viewBox="0 0 1500 530"><g transform="matrix(1,0,0,1,-0.9090909090909918,0.4171824638427779)"><svg viewBox="0 0 396 140" data-background-color="#b10dc9" preserveAspectRatio="xMidYMid meet" height="530" width="1500" xmlns="http://www.w3.org/2000/svg" xmlns:xlink="http://www.w3.org/1999/xlink"><g id="tight-bounds" transform="matrix(1,0,0,1,0.2400000000000091,-0.11019914139242815)"><svg viewBox="0 0 395.52 140.22039828278488" height="140.22039828278488" width="395.52"><g><svg viewBox="0 0 397.4975999999999 140.9215002741988" height="140.22039828278488" width="395.52"><g><rect width="397.4975999999999" height="4.316239429302279" x="0" y="77.44426156941424" fill="#ffffff" opacity="1" stroke-width="0" stroke="transparent" fill-opacity="1" class="rect-qz-0" data-fill-palette-color="secondary" rx="1%" id="qz-0" data-palette-color="#ffffff"></rect></g><g transform="matrix(1,0,0,1,0.9887999999999693,93.05955709636646)"><svg viewBox="0 0 395.52 47.86194317783233" height="47.86194317783233" width="395.52"><g id="textblocktransform"><svg viewBox="0 0 395.52 47.86194317783233" height="47.86194317783233" width="395.52" id="textblock"><g><svg viewBox="0 0 395.52 47.86194317783233" height="47.86194317783233" width="395.52"><g transform="matrix(1,0,0,1,0,0)"><svg width="395.52" viewBox="-10.8 -32 285.08 34.5" height="47.86194317783233" data-palette-color="#ffffff"><path d="M10.35-9.35L10.35-9.35Q10.35-11.8 11.05-15.83 11.75-19.85 12.9-22.78 14.05-25.7 16-27.85L16-27.85Q19.75-32 27.85-32L27.85-32Q34.15-32 36.88-29.48 39.6-26.95 39.6-21.95 39.6-16.95 38.15-12.38 36.7-7.8 34.65-5.35L34.65-5.35 37.75-3.25 34.25 2.5 25.45 0.75 25.8-1.15 21.55 0Q15.5 0 12.93-2.43 10.35-4.85 10.35-9.35ZM19.8-7.8L23.75-7.8Q25.7-7.8 26.65-8.28 27.6-8.75 27.9-10.45L27.9-10.45 30.2-23.45 26.2-23.45Q24.3-23.45 23.35-22.98 22.4-22.5 22.1-20.8L22.1-20.8 19.8-7.8ZM-10.25-16.85L9.75-16.85 9.4-14.75-10.25-16.85ZM-10.8-12.05L9.05-12.05Q8.9-10.9 8.9-9.95L8.9-9.95-10.8-12.05ZM-9.05-21.65L10.95-21.65 10.35-19.6-9.05-21.65ZM-10.15-7.25L8.95-7.25Q9.05-6.4 9.35-5.15L9.35-5.15-10.15-7.25ZM-6.7-26.45L13-26.45Q12.3-25.15 12-24.45L12-24.45-6.7-26.45ZM-5.35-2.4L10.75-2.4Q11.45-1.65 12.75-0.55L12.75-0.55-5.35-2.4ZM0.2-31.25L17.75-31.25Q16.3-30.35 15.5-29.6L15.5-29.6 0.2-31.25ZM51.4-12.05L51-9.8 29.8-12.05 51.4-12.05ZM52.25-16.85L51.85-14.6 30.65-16.85 52.25-16.85ZM53.1-21.65L52.7-19.4 31.5-21.65 53.1-21.65ZM53.9-26.45L53.55-24.2 32.35-26.45 53.9-26.45ZM29.65-7.25L50.8-7.25 50.8-6.25Q50.8-5.4 50.85-5L50.85-5 29.65-7.25ZM52.75-0.15L52.75-0.15 31.55-2.4 51.3-2.4Q51.85-1 52.75-0.15ZM60.5-7L63-7Q64.35-7 64.87-7.33 65.4-7.65 65.6-8.9L65.6-8.9 68.75-26.45 77.15-26.45 74.55-11.55Q73.35-4.55 70.67-1.98 68 0.6 61.55 0.6L61.55 0.6Q56.4 0.6 54.35-0.93 52.3-2.45 52.3-6.25L52.3-6.25Q52.3-8.35 52.85-11.55L52.85-11.55 55.5-26.45 63.9-26.45 60.5-7ZM96.05 0L87.3 0 91.89-26.45 100.69-26.45 96.05 0ZM86.05-2.4L85.64-0.15 64.44-2.4 86.05-2.4ZM87.75-12.05L87.34-9.8 66.14-12.05 87.75-12.05ZM88.59-16.85L88.19-14.6 67-16.85 88.59-16.85ZM89.44-21.65L89.05-19.4 67.84-21.65 89.44-21.65ZM90.25-26.45L89.89-24.2 68.69-26.45 90.25-26.45ZM86.89-7.25L86.5-5 65.3-7.25 86.89-7.25ZM107.94-2.4L107.54-0.15 86.34-2.4 107.94-2.4ZM112.84-21.65L112.69-19.4 91.49-21.65 112.84-21.65ZM113.19-26.45L113.04-24.2 91.84-26.45 113.19-26.45ZM87.89-7.25L109.49-7.25 108.59-6.2 108.39-5.05 87.89-7.25ZM96.59-16.85L118.19-16.85 116.34-14.75 96.59-16.85ZM111.99-9.95L92.29-12.05 113.89-12.05 111.99-9.95ZM132.04-7.15L130.84 0 109.09 0 110.04-5.55 122.04-18.85 121.94-19.15 114.19-19.15 114.69-26.45 135.29-26.45 134.29-20.9 122.24-7.45 122.34-7.15 132.04-7.15ZM141.24-2.4L140.84-0.15 119.64-2.4 141.24-2.4ZM146.14-21.65L145.99-19.4 124.79-21.65 146.14-21.65ZM146.49-26.45L146.34-24.2 125.14-26.45 146.49-26.45ZM121.19-7.25L142.79-7.25 141.89-6.2 141.69-5.05 121.19-7.25ZM129.89-16.85L151.49-16.85 149.64-14.75 129.89-16.85ZM145.29-9.95L125.59-12.05 147.19-12.05 145.29-9.95ZM165.34-7.15L164.14 0 142.39 0 143.34-5.55 155.34-18.85 155.24-19.15 147.49-19.15 147.99-26.45 168.59-26.45 167.59-20.9 155.54-7.45 155.64-7.15 165.34-7.15ZM192.14 0L180.79 0 180.79-26.45 189.89-26.45 189.89-12.15 190.14-12.15 195.74-26.45 203.34-26.45 203.34-12.15 203.54-12.15 208.14-26.45 217.69-26.45 207.94 0 197.09 0 196.34-9.35 195.99-9.35 192.14 0ZM159.49-26.45L179.14-26.45 179.14-24.2 159.49-26.45ZM159.49-21.65L179.14-21.65 179.14-19.4 159.49-21.65ZM159.49-16.85L179.14-16.85 179.14-14.6 159.49-16.85ZM159.49-12.05L179.14-12.05 179.14-9.8 159.49-12.05ZM159.49-7.25L179.14-7.25 179.14-5 159.49-7.25ZM159.49-2.4L179.14-2.4 179.14-0.15 159.49-2.4ZM235.04 0L226.29 0 230.89-26.45 239.69-26.45 235.04 0ZM225.04-2.4L224.64-0.15 203.44-2.4 225.04-2.4ZM226.74-12.05L226.34-9.8 205.14-12.05 226.74-12.05ZM227.59-16.85L227.19-14.6 205.99-16.85 227.59-16.85ZM228.44-21.65L228.04-19.4 206.84-21.65 228.44-21.65ZM229.24-26.45L228.89-24.2 207.69-26.45 229.24-26.45ZM225.89-7.25L225.49-5 204.29-7.25 225.89-7.25ZM246.93-2.4L246.53-0.15 225.33-2.4 246.93-2.4ZM251.83-21.65L251.68-19.4 230.48-21.65 251.83-21.65ZM252.18-26.45L252.03-24.2 230.83-26.45 252.18-26.45ZM226.88-7.25L248.48-7.25 247.58-6.2 247.38-5.05 226.88-7.25ZM235.58-16.85L257.18-16.85 255.33-14.75 235.58-16.85ZM250.98-9.95L231.28-12.05 252.88-12.05 250.98-9.95ZM271.03-7.15L269.83 0 248.08 0 249.03-5.55 261.03-18.85 260.93-19.15 253.18-19.15 253.68-26.45 274.28-26.45 273.28-20.9 261.23-7.45 261.33-7.15 271.03-7.15Z" opacity="1" transform="matrix(1,0,0,1,0,0)" fill="#ffffff" class="wordmark-text-0" data-fill-palette-color="primary" id="text-0"></path></svg></g></svg></g></svg></g></svg></g><g transform="matrix(1,0,0,1,171.31004886229996,0)"><svg viewBox="0 0 54.87750227539999 66.14520547176429" height="66.14520547176429" width="54.87750227539999"><g><svg xmlns="http://www.w3.org/2000/svg" xmlns:xlink="http://www.w3.org/1999/xlink" version="1.1" x="8" y="0" viewBox="28.943 14.175 42.113 71.65" enable-background="new 0 0 100 100" xml:space="preserve" height="66.14520547176429" width="38.87750227539999" class="icon-icon-0" data-fill-palette-color="accent" id="icon-0"><g fill="#ffffff" data-fill-palette-color="accent"><g fill="#ffffff" data-fill-palette-color="accent"><g fill="#ffffff" data-fill-palette-color="accent"><path fill="#ffffff" d="M64.037 85.825H35.963c-3.871 0-7.02-3.149-7.02-7.02V21.195c0-3.871 3.149-7.02 7.02-7.02h28.073c3.871 0 7.02 3.149 7.02 7.02v57.609c0 1.875-0.729 3.638-2.054 4.964C67.676 85.094 65.913 85.825 64.037 85.825zM35.963 17.175c-2.217 0-4.02 1.803-4.02 4.02v57.609c0 2.217 1.803 4.02 4.02 4.02h28.074c2.217 0 4.02-1.803 4.02-4.02l-0.001-57.609c0-2.217-1.803-4.02-4.02-4.02H35.963z" data-fill-palette-color="accent"></path></g><g fill="#ffffff" data-fill-palette-color="accent"><path fill="#ffffff" d="M50 80.382c-2.874 0-5.211-2.337-5.211-5.211S47.126 69.96 50 69.96s5.211 2.337 5.211 5.211S52.874 80.382 50 80.382zM50 72.96c-1.219 0-2.211 0.992-2.211 2.211s0.992 2.211 2.211 2.211 2.211-0.992 2.211-2.211S51.219 72.96 50 72.96z" data-fill-palette-color="accent"></path></g><g fill="#ffffff" data-fill-palette-color="accent"><g fill="#ffffff" data-fill-palette-color="accent"><path fill="#ffffff" d="M51.88 24.114h-8.744c-0.829 0-1.5-0.671-1.5-1.5s0.671-1.5 1.5-1.5h8.744c0.829 0 1.5 0.671 1.5 1.5S52.708 24.114 51.88 24.114z" data-fill-palette-color="accent"></path></g><g fill="#ffffff" data-fill-palette-color="accent"><path fill="#ffffff" d="M56.865 24.114h-0.526c-0.829 0-1.5-0.671-1.5-1.5s0.671-1.5 1.5-1.5h0.526c0.829 0 1.5 0.671 1.5 1.5S57.694 24.114 56.865 24.114z" data-fill-palette-color="accent"></path></g></g></g><g fill="#ffffff" data-fill-palette-color="accent"><g fill="#ffffff" data-fill-palette-color="accent"><path fill="#ffffff" d="M58.582 63.989H41.419c-2.618 0-4.747-2.129-4.747-4.747 0-2.618 2.129-4.747 4.747-4.747h17.162c1.269 0 2.461 0.494 3.358 1.39 0.896 0.896 1.39 2.089 1.39 3.357C63.329 61.86 61.2 63.989 58.582 63.989zM41.419 57.496c-0.963 0-1.747 0.784-1.747 1.747 0 0.963 0.784 1.747 1.747 1.747h17.163c0.963 0 1.747-0.784 1.747-1.747 0-0.963-0.783-1.747-1.746-1.747H41.419z" data-fill-palette-color="accent"></path></g><g fill="#ffffff" data-fill-palette-color="accent"><path fill="#ffffff" d="M52.186 57.496h-4.372c-0.829 0-1.5-0.671-1.5-1.5V44.157c0-0.829 0.671-1.5 1.5-1.5h4.372c0.829 0 1.5 0.671 1.5 1.5v11.839C53.686 56.824 53.015 57.496 52.186 57.496zM49.314 54.496h1.372v-8.839h-1.372V54.496z" data-fill-palette-color="accent"></path></g><g fill="#ffffff" data-fill-palette-color="accent"><path fill="#ffffff" d="M50 45.657c-4.183 0-7.586-3.403-7.586-7.586s3.403-7.586 7.586-7.586 7.586 3.403 7.586 7.586S54.183 45.657 50 45.657zM50 33.484c-2.529 0-4.586 2.057-4.586 4.586s2.057 4.586 4.586 4.586 4.586-2.058 4.586-4.586S52.529 33.484 50 33.484z" data-fill-palette-color="accent"></path></g></g></g></svg></g></svg></g><g><rect width="94.7769288623" height="4.316239429302279" y="60.82896604246201" x="226.18755113769996" fill="#ffffff" data-fill-palette-color="secondary"></rect><rect width="94.7769288623" height="4.316239429302279" y="60.82896604246201" x="76.53311999999997" fill="#ffffff" data-fill-palette-color="secondary"></rect></g></svg></g><defs></defs></svg><rect width="395.52" height="140.22039828278488" fill="none" stroke="none" visibility="hidden"></rect></g></svg></g></svg>